# xmcd CD database file
#
# Track frame offsets:
#	150
#	30684
#	65228
#	96745
#	123699
#	152506
#	187140
#	212448
#
# Disc length: 3125 seconds
#
# Revision: 0
# Processed by: cddbd v1.4PL0 Copyright (c) Steve Scherf et al.
# Submitted via: CDex 1.50
#
DISCID=790c3308
DTITLE=Various Artist - Jazz For A Summer Night - CD2
DYEAR=2003
DGENRE=Jazz
TTITLE0=Mulgrew Miller - Ones Own Room
TTITLE1=Rralph Moore - Episode From A Village Dance
TTITLE2=Phil Woods - Samba Du Bois
TTITLE3=Kenny Barron - Golden Lotus
TTITLE4=Richard (Groove) Holmes - Cheekas Dance
TTITLE5=Woody Shaw - Jean Marie
TTITLE6=Sonny Philips - Goin Home
TTITLE7=James Moody - Dreams
EXTD=YEAR: 2003
EXTT0=
EXTT1=
EXTT2=
EXTT3=
EXTT4=
EXTT5=
EXTT6=
EXTT7=
PLAYORDER=
